<svg xmlns="http://www.w3.org/2000/svg" width="120" height="27.001"><g fill="#2b3137"><path data-name="パス 15" d="M17.207 20.8V8.518c0-.608.059-3.244.059-5.185h-.059l-5.852 17.466H8.574L2.723 3.362h-.058c0 1.912.058 4.548.058 5.156V20.8H0V0h4.026l5.939 17.584h.058L15.933 0h4v20.8h-2.726z"/><path data-name="パス 16" d="M35.335 5.65h2.814c-1.767 4.953-3.505 9.908-5.446 14.861-2.405 6.143-2.665 6.49-5.939 6.49a3.8 3.8 0 01-1.072-.232v-2.317a4.491 4.491 0 001.536.26c1.333 0 1.477-.377 2.694-3.506L24.297 5.65h2.9l4.027 12.341h.058z"/><path data-name="パス 17" d="M58.427 20.8h-2.955L50.055 0h3.042l3.882 16.918h.058L61.701 0h3.07l4.665 16.918h.058L73.376 0h3.1L71 20.8h-2.955L63.294 3.563h-.058z"/><path data-name="パス 18" d="M85.723 5.215c4.838 0 7.04 4.084 7.04 7.995s-2.2 8-7.04 8-7.04-4.084-7.04-8 2.202-7.995 7.04-7.995zm0 13.79c3.65 0 4.4-3.766 4.4-5.8s-.753-5.793-4.4-5.793-4.4 3.766-4.4 5.793.75 5.8 4.4 5.8z"/><path data-name="パス 19" d="M99.46 20.8h-2.549V5.65h2.4v2.521h.058c1.014-1.769 2.346-2.956 4.259-2.956a2 2 0 01.666.088v2.639h-.956a3.852 3.852 0 00-3.882 4.057z"/><path data-name="パス 20" d="M120 20.8h-3.273l-4.723-7.646-2.114 1.912V20.8h-2.463V0h2.463v12.052l6.519-6.4h3.244l-5.794 5.65z"/></g></svg>